<?xml version="1.0" encoding="utf-8"?>
<!-- Generator: Adobe Illustrator 25.4.1, SVG Export Plug-In . SVG Version: 6.00 Build 0)  -->
<svg version="1.1" id="katman_2" xmlns="http://www.w3.org/2000/svg" xmlns:xlink="http://www.w3.org/1999/xlink" x="0px" y="0px"
	 viewBox="0 0 338.2 411.9" style="enable-background:new 0 0 338.2 411.9;" xml:space="preserve">
<style type="text/css">
	.st0{fill:#C6C6C6;}
	.st1{fill:#FFFFFF;}
	.st2{fill:#9D9D9C;}
</style>
<path class="st0" d="M28.7,318.4v28.5c0,0,5-0.3,7.8,6.8h14.7l3.8-3.8h23.4c0,0,36.7-42.6,36.7-76v-56c0,0-0.3-27.3-32.9-84.6
	L65.3,65.9l-12.8-3.1v-3.9H33.1V62h-4.4v28.2h4.4c13.3,0,24.2,10.8,24.2,24.2s-10.8,24.2-24.2,24.2l-4.4,0v131.7h4.4
	c13.3,0,24.2,10.8,24.2,24.2c0,13.3-10.8,24.2-24.2,24.2L28.7,318.4z"/>
<path class="st0" d="M204.4,61.4c18.7,5,18.1,12.3,19,20.9s3.9,63.3,3.9,63.3S215,191.2,210.9,218v56c0,0-0.3,21.6,10.6,45
	s-0.3,28.7-7.5,30.7s-36.3,5.3-45.6,5.3h-1c-9.3,0-38.4-3.3-45.6-5.3c-7.3-2-18.4-7.3-7.5-30.7s10.6-45,10.6-45v-56
	c-4.2-26.8-16.5-72.3-16.5-72.3s3.1-54.7,3.9-63.3c0.8-8.7,0.3-15.9,19-20.9C131.2,61.4,161.7,52.5,204.4,61.4z"/>
<path class="st1" d="M131.4,277.1c0,0,2.4,16.4-9.5,39.3c0,0,12.8,7.3,45.6,7.3s45.1-7.5,45.1-7.5s-8-16.2-8.9-39.1H131.4z"/>
<path class="st1" d="M115,144.6l16.5,69.2h72.3l16.1-69.2C219.8,144.6,174,122.2,115,144.6z"/>
<polygon class="st1" points="75.6,291.5 75.6,308.5 108.3,278.1 "/>
<path class="st0" d="M217.4,387.9h-98.2c-3.1,0-5.5-2.5-5.5-5.5v-15c0-3.1,2.5-5.5,5.5-5.5h98.2c3.1,0,5.5,2.5,5.5,5.5v15
	C222.9,385.4,220.4,387.9,217.4,387.9z"/>
<path class="st0" d="M217.4,52.9h-98.2c-3.1,0-5.5-2.5-5.5-5.5v-15c0-3.1,2.5-5.5,5.5-5.5h98.2c3.1,0,5.5,2.5,5.5,5.5v15
	C222.9,50.4,220.4,52.9,217.4,52.9z"/>
<path class="st0" d="M123.4,394.4c0,3.1,2.5,5.5,5.5,5.5h11.7c3.1,0,5.5-2.5,5.5-5.5V390h-22.8V394.4z"/>
<path class="st0" d="M190.4,394.4c0,3.1,2.5,5.5,5.5,5.5h11.7c3.1,0,5.5-2.5,5.5-5.5V390h-22.8V394.4z"/>
<path class="st0" d="M213.3,19.9c0-3.1-2.5-5.5-5.5-5.5H196c-3.1,0-5.5,2.5-5.5,5.5v4.4h22.8V19.9z"/>
<path class="st0" d="M146.3,19.9c0-3.1-2.5-5.5-5.5-5.5H129c-3.1,0-5.5,2.5-5.5,5.5v4.4h22.8V19.9z"/>
<path id="onTampon" class="st2" d="M216.1,50.9h-95.7c-2.2,0-3.9-1.8-3.9-3.9V32.8c0-2.2,1.8-3.9,3.9-3.9h95.7
	c2.2,0,3.9,1.8,3.9,3.9v14.2C220.1,49.1,218.3,50.9,216.1,50.9z"/>
<path id="arkaBagaj" class="st2" d="M167.8,350.8c-7.2,0-48.9-2-51.7-9.5s2.5-20.1,2.5-20.1s18.8,9.1,48.9,9.2h0.1
	c30.2-0.1,48.9-9.2,48.9-9.2s5.3,12.6,2.5,20.1C216.2,348.6,176.4,350.7,167.8,350.8L167.8,350.8z"/>
<path id="tavan" class="st2" d="M203.7,219.6c-2.5,24,0,52.5,0,52.5h-72.3c2.8-25.4,0-52.5,0-52.5H203.7z"/>
<path id="onKaput" class="st2" d="M118.1,76.5c0,0,2.6-15.6,49.2-15.6s50.6,16,50.6,16l3.7,62.9c0,0-23.8-10-53.8-10s-53.4,9-53.4,9
	L118.1,76.5z"/>
<path id="arkaTampon" class="st2" d="M216.1,385.9h-95.7c-2.2,0-3.9-1.8-3.9-3.9v-14.2c0-2.2,1.8-3.9,3.9-3.9h95.7
	c2.2,0,3.9,1.8,3.9,3.9V382C220.1,384.1,218.3,385.9,216.1,385.9z"/>
<circle id="solArkaTeker" class="st0" cx="33.1" cy="294.3" r="20.4"/>
<circle id="solOnTeker" class="st0" cx="33.1" cy="114.3" r="20.4"/>
<path id="solArkaCamurluk" class="st2" d="M60.9,304.6v39h-6l-6.1,6.1h-9.6c0-4.6-6.1-5.9-6.1-5.9v-21.7c11.7,0,21.7-7.3,25.8-17.5
	L60.9,304.6z"/>
<path id="solArkaKapi" class="st2" d="M33.1,209.6l78.3,15.9v48.5l-50.5,20.4c0-15.3-12.4-27.8-27.8-27.8V209.6z"/>
<path id="solOnKapi" class="st2" d="M63.3,119.7c51.3,60,48,103.8,48,103.8l-78.3-16.3v-65.1c13.5,0,24.8-9.7,27.3-22.5L63.3,119.7z
	"/>
<path id="solOnCamurluk" class="st2" d="M59.3,68.8V105c-3.8-10.7-14.1-18.4-26.2-18.4V66.3h2.3v-2.9h14.1v3.3L59.3,68.8z"/>
<circle id="sagArkaTeker" class="st0" cx="301.6" cy="294.3" r="20.4"/>
<circle id="sagOnTeker" class="st0" cx="301.6" cy="114.3" r="20.4"/>
<path id="sagKomple" class="st0" d="M306.1,318.4v28.5c0,0-5-0.3-7.8,6.8h-14.7l-3.8-3.8h-23.4c0,0-36.7-42.6-36.7-76v-56
	c0,0,0.3-27.3,32.9-84.6l16.7-67.5l12.8-3.1v-3.9h19.4V62h4.4v28.2h-4.4c-13.3,0-24.2,10.8-24.2,24.2s10.8,24.2,24.2,24.2l4.4,0
	v131.7h-4.4c-13.3,0-24.2,10.8-24.2,24.2c0,13.3,10.8,24.2,24.2,24.2L306.1,318.4z"/>
<polygon id="sagArkaKelebek" class="st1" points="259.1,291.5 259.1,308.5 226.4,278.1 "/>
<path id="sagArkaCamurluk_00000032607898705159821250000011653749826666419891_" class="st2" d="M275.8,304.6
	c4.1,10.3,14.1,17.5,25.8,17.5v21.7c0,0-6.1,1.3-6.1,5.9h-9.6l-6.1-6.1h-6v-39L275.8,304.6z"/>
<path id="sagArkaKapi" class="st2" d="M301.6,266.5c-15.3,0-27.8,12.4-27.8,27.8l-50.5-20.4v-48.5l78.3-15.9V266.5z"/>
<path id="sagOnKapi" class="st2" d="M274.3,119.6c2.5,12.8,13.7,22.5,27.3,22.5v65.1l-78.3,16.3c0,0-3.3-43.8,48-103.8L274.3,119.6z
	"/>
<path id="sagOnCamurluk" class="st2" d="M301.6,86.5c-12.1,0-22.3,7.7-26.2,18.4V68.8l9.7-2.1v-3.3h14.1v2.9h2.3V86.5z"/>
<path class="st1" d="M75.6,141.8c0,0,31.3,44.1,32.7,76.2l-32.7-7.3V141.8z"/>
<polygon class="st1" points="75.6,222.7 75.6,282.7 108.3,270.1 108.3,229.7 "/>
<polygon class="st1" points="185.6,35 217.6,35 217.6,45.6 197.6,43.6 "/>
<polygon class="st1" points="119.1,35 151,35 140,43.6 119.1,45.6 "/>
<polygon id="sagArkaCam" class="st1" points="259.1,222.7 259.1,282.7 226.4,270.1 226.4,229.7 "/>
<path id="sagOnCam" class="st1" d="M259.1,141.8c0,0-31.3,44.1-32.7,76.2l32.7-7.3V141.8z"/>
<rect x="119.1" y="370" class="st1" width="22" height="10.6"/>
<rect x="195.6" y="370" class="st1" width="22" height="10.6"/>
</svg>
